<svg width="390" height="1090" viewBox="0 0 390 1090" fill="none" xmlns="http://www.w3.org/2000/svg">
<path d="M188.901 1149.25C176.671 1166.19 139.5 1246.5 204.5 1314C230.667 1330.33 280.2 1365.5 269 1375.5C257.833 1389.17 242.2 1420.4 269 1436C302.5 1455.5 301.5 1442 315.5 1461.5C329.5 1481 343 1460.5 359 1497C375 1533.5 429.5 1586.5 430.5 1599.5L428 1535C434.5 1519.5 419 1529.5 408 1488.5C397 1447.5 369.5 1458.5 346 1440C322.5 1421.5 312.5 1396.5 298 1403.5C286.4 1409.1 298.833 1380.17 306.5 1365C306.5 1329.8 286.833 1321 269 1323C241.8 1321.4 241.318 1293.5 213.917 1244C173.231 1170.5 262.697 1165.58 241.017 1031.27C219.475 937.489 215.306 971.521 204.188 827.072C202.103 806.653 194.46 782.452 194.46 767.326C194.46 752.201 198.872 733.657 200.714 670.523C202.103 622.877 221.56 579.013 225.729 572.207C229.899 565.4 236.153 563.888 234.068 553.3C231.983 542.712 243.796 495.066 250.05 526.074C256.304 557.081 250.05 554.812 252.135 582.795C254.219 610.777 256.304 610.777 254.219 619.096C252.135 627.415 239.627 659.179 250.05 677.329C260.473 695.48 242.406 695.48 295.217 765.058C348.028 834.635 330.656 800.603 354.977 844.467C379.298 888.331 398.06 870.18 414.737 898.162C431.414 926.145 432.109 901.944 455.735 937.489C479.361 973.034 480.004 976.341 499.512 1007.82C519.664 1040.34 520.358 1031.27 524.528 1037.32C527.133 1041.1 539.12 1072.86 539.815 1079.67C540.839 1089.7 559.967 1113.7 569 1108.41V1063.79C564.136 1061.77 552.184 1049.57 543.289 1016.9C532.171 976.059 514.105 1004.8 488.394 935.22C484.225 917.826 453.65 917.069 438.363 880.768C423.075 844.467 380.688 849.004 376.518 836.148C372.349 823.291 364.705 818.753 350.808 791.527C336.91 764.301 323.707 771.864 302.861 721.194C282.015 670.523 293.828 666.741 286.879 619.096C279.93 576.744 292.438 566.005 286.879 529.099C279.93 482.966 267.422 476.16 277.15 421.708C286.879 367.255 288.269 343.811 274.371 305.241C260.473 266.671 247.915 264.184 240.322 259.864C226.5 252 231 216.773 207.5 212.5C185.5 208.5 173.5 163 162.5 148.5C153.199 136.24 118.057 115.377 117 93C116.448 81.3207 131.3 59.6311 142.5 49C175.159 18 170 -19.5 200.714 -34L170 -52C132.337 -42 144.408 -23 117 10.5C89.592 44 71.5 59 71.5 88.5C71.5 118 89.5 153.5 117 169.5C139 182.3 153.667 218.833 162.5 233C204.193 294.259 217.391 327.929 213.916 340.03C210.442 352.13 207.663 412.632 211.137 461.034C214.611 509.436 209.747 516.999 204.188 532.88C198.629 548.762 190.29 557.838 175.003 559.35C155.547 559.35 141.649 537.418 128.446 528.343C115.243 519.267 104.125 523.049 95.092 528.343L95.003 528.395C85.9315 533.711 66.5905 545.045 63.1275 564.644C60.348 580.375 54.0941 595.904 51.3145 601.702C27.5916 666.249 33.9425 645.566 17.2654 686.405C0.588303 727.244 -9.99461 712.492 -20.953 715.9C-25.8171 717.412 -39.7147 721.209 -57.7816 713.631C-70.9843 705.327 -86.3267 717.008 -96 715.9V723.462C-92.8041 728.1 -66.1202 716.656 -44.5789 728.247C-21.0512 740.907 1.74554 722.747 6.84222 715.9C51.3145 656.154 63.1275 610.777 63.1275 601.702C64.5173 575.232 104.125 499.604 134.005 541.956C157.909 575.837 180.562 572.207 188.901 566.156C219.475 538.174 208.357 566.913 188.901 601.702C176.393 628.928 159.763 720.68 163.19 749.176C180.562 893.625 184.268 913.54 179.867 926.145C172.918 962.446 197.24 996.479 213.917 1049.42C230.594 1102.36 204.188 1128.07 188.901 1149.25Z" fill="#277EE3" fill-opacity="0.47"/>
</svg>
