<?xml version="1.0" encoding="UTF-8" standalone="no"?>
<svg
   width="171.162"
   height="163.5"
   viewBox="0 0 171.162 163.5"
   fill="none"
   version="1.1"
   id="svg8"
   sodipodi:docname="JTGLogo.svg"
   inkscape:version="1.2.2 (732a01da63, 2022-12-09)"
   xmlns:inkscape="http://www.inkscape.org/namespaces/inkscape"
   xmlns:sodipodi="http://sodipodi.sourceforge.net/DTD/sodipodi-0.dtd"
   xmlns="http://www.w3.org/2000/svg"
   xmlns:svg="http://www.w3.org/2000/svg">
  <defs
     id="defs12" />
  <sodipodi:namedview
     id="namedview10"
     pagecolor="#ffffff"
     bordercolor="#666666"
     borderopacity="1.0"
     inkscape:showpageshadow="2"
     inkscape:pageopacity="0.0"
     inkscape:pagecheckerboard="0"
     inkscape:deskcolor="#d1d1d1"
     showgrid="false"
     inkscape:zoom="2.3508772"
     inkscape:cx="249.90672"
     inkscape:cy="124.63433"
     inkscape:window-width="1920"
     inkscape:window-height="1027"
     inkscape:window-x="-8"
     inkscape:window-y="-8"
     inkscape:window-maximized="1"
     inkscape:current-layer="svg8" />
  <g
     id="g810"
     transform="translate(-163)">
    <path
       fill-rule="evenodd"
       clip-rule="evenodd"
       d="m 238.2,95.6 c 0,4.546 -0.807,8.905 -2.285,12.939 -3.21,12.771 -13.263,36.087 -35.315,54.75 -22.052,-18.663 -32.105,-41.978 -35.315,-54.75 C 163.807,104.505 163,100.147 163,95.6 163,74.8341 179.834,58 200.6,58 c 20.766,0 37.6,16.8341 37.6,37.6 z M 200.35,114 c 10.493,0 19,-8.507 19,-19 0,-10.4934 -8.507,-19 -19,-19 -10.493,0 -19,8.5066 -19,19 0,10.493 8.507,19 19,19 z"
       fill="#2e2e2e"
       id="path2" />
    <path
       fill-rule="evenodd"
       clip-rule="evenodd"
       d="m 334.162,29.581 c 0,3.577 -0.635,7.0057 -1.798,10.1795 C 329.839,49.8085 321.93,68.1513 304.581,82.834 287.232,68.1511 279.323,49.8082 276.798,39.7603 275.635,36.5865 275,33.1579 275,29.581 275,13.2439 288.244,0 304.581,0 c 16.337,0 29.581,13.2439 29.581,29.581 z m -29.778,14.4758 c 8.256,0 14.948,-6.6924 14.948,-14.9479 0,-8.2555 -6.692,-14.9479 -14.948,-14.9479 -8.255,0 -14.948,6.6924 -14.948,14.9479 0,8.2555 6.693,14.9479 14.948,14.9479 z"
       fill="#2e2e2e"
       id="path4" />
    <path
       fill-rule="evenodd"
       clip-rule="evenodd"
       d="m 285.384,77.7845 c 0.92,-0.21 1.81,-0.4134 2.668,-0.6113 l 8.144,8.3152 c -2.518,0.66 -5.546,1.3514 -8.723,2.0767 l -0.001,4e-4 -0.003,5e-4 c -0.96,0.2192 -1.934,0.4416 -2.911,0.667 -4.557,1.0515 -9.321,2.1994 -13.712,3.5184 -4.438,1.3331 -8.233,2.7655 -10.954,4.307 -2.962,1.6785 -3.465,2.8153 -3.506,3.0037 -0.938,4.3159 0.11,6.5019 1.304,7.9689 0.71,0.872 1.624,1.659 2.735,2.47 0.553,0.404 1.109,0.782 1.714,1.192 v 0 l 10e-4,0.001 0.01,0.007 0.017,0.011 c 0.573,0.389 1.228,0.835 1.833,1.288 l 0.527,0.395 c 2.143,1.605 7.824,5.859 13.515,10.288 3.123,2.43 6.282,4.938 8.877,7.106 2.433,2.032 4.811,4.12 5.985,5.588 2.168,2.709 3.95,5.516 4.705,8.632 0.807,3.329 0.32,6.462 -1.04,9.522 -1.855,4.174 -5.557,6.646 -9.906,8.049 -4.276,1.379 -9.719,1.92 -16.163,1.92 h -0.059 -0.059 -0.06 -0.061 -0.061 -0.061 -0.063 -0.062 -0.064 -0.063 -0.065 -0.064 -0.066 -0.066 -0.066 -0.067 -0.067 -0.068 -0.069 -0.069 -0.07 -0.07 -0.07 -0.071 -0.072 -0.072 -0.072 -0.074 -0.073 -0.074 -0.075 -0.075 -0.075 -0.076 -0.077 -0.077 -0.078 -0.078 -0.078 -0.079 -0.079 -0.08 -0.081 -0.081 -0.081 -0.082 -0.082 -0.083 -0.083 -0.084 -0.084 -0.084 -0.085 -0.086 -0.086 -0.086 -0.087 -0.087 -0.088 -0.088 -0.088 -0.089 -0.09 -0.09 -0.09 -0.091 -0.091 -0.092 -0.092 -0.092 -0.093 -0.093 -0.094 -0.094 -0.095 -0.095 -0.095 -0.096 -0.096 -0.096 -0.097 -0.098 -0.097 -0.099 -0.098 -0.099 -0.099 -0.1 -0.1 -0.101 -0.101 -0.101 -0.102 -0.102 -0.102 -0.103 -0.103 -0.103 -0.104 -0.104 -0.105 -0.105 -0.105 -0.106 -0.106 -0.106 -0.107 -0.107 -0.108 -0.107 -0.108 -0.109 -0.109 -0.109 -0.109 -0.11 -0.11 -0.111 -0.11 -0.112 -0.111 -0.112 -0.112 -0.112 -0.113 -0.113 -0.114 -0.113 -0.114 -0.114 -0.115 -0.115 -0.115 -0.116 -0.115 -0.117 -0.116 -0.117 -0.117 -0.117 -0.117 -0.118 -0.118 -0.119 -0.119 -0.119 -0.119 -0.119 -0.12 -0.12 -0.12 -0.121 -0.121 -0.121 -0.121 -0.122 -0.122 -0.122 -0.122 -0.123 -0.123 -0.123 -0.124 -0.123 -0.124 -0.124 -0.125 -0.124 -0.125 -0.125 -0.125 -0.126 -0.126 -0.125 -0.127 -0.126 -0.127 -0.127 -0.127 -0.127 -0.127 -0.128 -0.128 -0.128 -0.128 -0.129 -0.129 -0.129 -0.129 -0.129 -0.129 -0.13 -0.13 -0.13 -0.13 -0.131 -0.13 -0.131 -0.131 -0.131 -0.131 -0.132 -0.132 -0.131 -0.132 -0.133 -0.132 -0.132 -0.133 -0.133 -0.133 -0.133 -0.133 -0.133 -0.134 -0.134 -0.133 -0.134 -0.134 -0.135 -0.134 -0.135 -0.134 -0.135 -0.135 -0.135 -0.135 -0.135 -0.136 -0.135 -0.136 -0.136 -0.135 -0.136 -0.136 -0.137 -0.136 -0.136 -0.137 -0.136 -0.137 -0.137 -0.137 -0.137 -0.137 -0.137 -0.137 -0.137 -0.138 -0.137 -0.138 -0.137 -0.138 -0.138 -0.138 -0.138 -0.137 -0.139 -0.138 -0.138 -0.138 -0.138 -0.139 -0.138 -0.138 -0.139 -0.138 -0.139 -0.139 -0.138 -0.139 -0.139 -0.139 -0.138 -0.139 -0.139 -0.139 -0.139 -0.139 -0.139 -0.139 -0.139 -0.139 -0.139 -0.139 -0.139 -0.139 -0.139 -0.139 -0.14 -0.139 -0.139 -0.139 -0.139 -0.139 -0.139 -0.139 -0.139 -0.139 -0.139 -0.14 -0.139 -0.139 -0.138 -0.139 -0.139 -0.139 -0.139 -0.139 -0.139 -0.138 -0.139 -0.139 -0.138 -0.139 -0.139 -0.138 -0.139 -0.138 -0.138 -0.139 -0.138 -0.138 -0.138 -0.138 -0.138 -0.138 -0.138 -0.138 -0.137 -0.138 -0.138 -0.137 -0.138 -0.137 -0.137 -0.137 -0.137 -0.137 -0.137 -0.137 -0.137 -0.136 -0.137 -0.136 -0.137 -0.136 -0.136 -0.136 -0.136 -0.136 -0.135 -0.136 -0.135 -0.135 -0.136 -0.135 -0.135 -0.134 -0.135 -0.135 -0.134 -0.134 -0.134 -0.134 -0.134 -0.134 -0.134 -0.133 -0.133 -0.133 -0.133 -0.133 -0.133 -0.132 -0.133 -0.132 -0.132 -0.132 -0.131 -0.132 -0.131 -0.132 -0.131 -0.13 -0.131 -0.131 -0.13 -0.13 -0.13 -0.13 -0.129 -0.129 -0.13 -0.129 -0.128 -0.129 -0.128 -0.128 -0.128 -0.128 -0.128 -0.127 -0.127 -0.127 -0.127 -0.126 -0.126 -0.126 -0.126 -0.126 -0.125 -0.125 -0.125 -0.125 -0.124 -0.124 -0.124 -0.124 -0.124 -0.123 -0.123 -0.123 -0.122 -0.122 -0.122 -0.122 -0.121 -0.121 -0.121 -0.121 -0.12 -0.121 -0.119 -0.12 -0.119 -0.119 -0.119 -0.119 -0.118 -0.118 -0.117 -0.118 -0.117 -0.117 -0.116 -0.116 -0.116 -0.116 -0.115 -0.115 -0.115 -0.114 -0.114 -0.114 -0.113 -0.113 -0.113 -0.113 -0.112 -0.112 -0.111 -0.112 -0.11 -0.111 -0.11 -0.11 -0.11 -0.109 -0.109 -0.108 -0.109 -0.108 -0.107 -0.107 -0.107 -0.106 -0.107 -0.105 -0.106 -0.105 -0.105 -0.104 -0.061 l 7.827,-10 h 0.059 0.125 0.125 0.125 0.125 0.126 0.126 0.126 0.126 0.126 0.127 0.127 0.127 0.127 0.128 0.128 0.128 0.128 0.128 0.129 0.128 0.129 0.13 0.129 0.129 0.13 0.13 0.13 0.13 0.131 0.131 0.13 0.131 0.132 0.131 0.132 0.131 0.132 0.132 0.132 0.133 0.132 0.133 0.133 0.133 0.133 0.133 0.133 0.134 0.134 0.134 0.134 0.134 0.134 0.134 0.135 0.135 0.134 0.135 0.135 0.136 0.135 0.135 0.136 0.135 0.136 0.136 0.136 0.136 0.136 0.137 0.136 0.137 0.136 0.137 0.137 0.137 0.137 0.137 0.137 0.137 0.137 0.138 0.137 0.138 0.138 0.137 0.138 0.138 0.138 0.138 0.138 0.138 0.138 0.138 0.139 0.138 0.138 0.139 0.138 0.139 0.139 0.138 0.139 0.139 0.138 0.139 0.139 0.139 0.139 0.139 0.139 0.138 0.139 0.139 0.14 0.139 0.139 0.139 0.139 0.139 0.139 0.139 0.139 0.139 0.139 0.14 0.139 0.139 0.139 0.139 0.139 0.139 0.139 0.139 0.139 0.139 0.139 0.139 0.139 0.139 0.139 0.138 0.139 0.139 0.139 0.138 0.139 0.139 0.138 0.139 0.138 0.138 0.139 0.138 0.138 0.138 0.138 0.139 0.137 0.138 0.138 0.138 0.138 0.137 0.138 0.137 0.138 0.137 0.137 0.137 0.137 0.137 0.137 0.137 0.137 0.136 0.137 0.136 0.136 0.137 0.136 0.136 0.135 0.136 0.136 0.135 0.136 0.135 0.135 0.135 0.135 0.135 0.134 0.135 0.134 0.135 0.134 0.134 0.133 0.134 0.134 0.133 0.133 0.133 0.133 0.133 0.133 0.132 0.132 0.133 0.132 0.131 0.132 0.132 0.131 0.131 0.131 0.131 0.13 0.131 0.13 0.13 0.13 0.13 0.129 0.129 0.129 0.129 0.129 0.129 0.128 0.128 0.128 0.128 0.127 0.127 0.127 0.127 0.127 0.126 0.127 0.125 0.126 0.126 0.125 0.125 0.125 0.124 0.125 0.124 0.124 0.123 0.124 0.123 0.123 0.123 0.122 0.122 0.122 0.122 0.121 0.121 0.121 0.121 0.12 0.12 0.12 0.119 0.119 0.119 0.119 0.119 0.118 0.118 0.117 0.117 0.117 0.117 0.116 0.117 0.115 0.116 0.115 0.115 0.115 0.114 0.114 0.113 0.114 0.113 0.113 0.112 0.112 0.112 0.111 0.112 0.11 0.111 0.11 0.11 0.109 0.109 0.109 0.109 0.108 0.107 0.108 0.107 0.107 0.106 0.106 0.106 0.105 0.105 0.105 0.104 0.104 0.103 0.103 0.103 0.102 0.102 0.102 0.101 0.101 0.101 0.1 0.1 0.099 0.099 0.098 0.099 0.097 0.098 0.097 0.096 0.096 0.096 0.095 0.095 0.095 0.094 0.094 0.093 0.093 0.092 0.092 0.092 0.091 0.091 0.09 0.09 0.09 0.089 0.088 0.088 0.088 0.087 0.087 0.086 0.086 0.086 0.085 0.084 0.084 0.084 0.083 0.083 0.082 0.082 0.081 0.081 0.081 0.08 0.079 0.079 0.078 0.078 0.078 0.077 0.077 0.076 0.075 0.075 0.075 0.074 0.073 0.074 0.072 0.072 0.072 0.071 0.07 0.07 0.07 0.069 0.069 0.068 0.067 0.067 0.066 0.066 0.066 0.064 0.065 0.063 0.064 0.062 0.063 0.061 0.061 0.061 0.06 0.059 0.059 c 6.056,0 10.283,-0.531 13.093,-1.437 2.737,-0.883 3.534,-1.911 3.838,-2.594 0.64,-1.44 0.653,-2.307 0.46,-3.103 -0.245,-1.009 -0.963,-2.452 -2.795,-4.743 -0.426,-0.532 -1.958,-1.963 -4.587,-4.159 -2.466,-2.06 -5.522,-4.487 -8.608,-6.889 -5.612,-4.368 -11.22,-8.567 -13.368,-10.176 L 258,120 c -0.39,-0.292 -0.852,-0.608 -1.469,-1.027 l -0.06,-0.041 v 0 0 c -0.572,-0.389 -1.25,-0.849 -1.943,-1.355 -1.436,-1.048 -3.116,-2.418 -4.593,-4.233 -3.181,-3.908 -4.883,-9.222 -3.321,-16.4061 1.003,-4.6112 4.896,-7.6242 8.348,-9.58 3.694,-2.0929 8.331,-3.7792 13.007,-5.1838 4.723,-1.4186 9.755,-2.627 14.341,-3.6851 1.055,-0.2434 2.081,-0.4777 3.072,-0.7041 z"
       fill="#2e2e2e"
       id="path6" />
  </g>
</svg>
