<?xml version="1.0" encoding="UTF-8" standalone="no"?>
<!DOCTYPE svg PUBLIC "-//W3C//DTD SVG 1.1//EN" "http://www.w3.org/Graphics/SVG/1.1/DTD/svg11.dtd">
<!-- Created with Vectornator (http://vectornator.io/) -->
<svg height="100%" stroke-miterlimit="10" style="fill-rule:nonzero;clip-rule:evenodd;stroke-linecap:round;stroke-linejoin:round;" version="1.1" viewBox="0 0 27 32" width="100%" xml:space="preserve" xmlns="http://www.w3.org/2000/svg" xmlns:vectornator="http://vectornator.io" xmlns:xlink="http://www.w3.org/1999/xlink">
<defs>
<linearGradient gradientTransform="matrix(1 0 0 1 0 0)" gradientUnits="userSpaceOnUse" id="LinearGradient" x1="13.4994" x2="13.4994" y1="7.47412" y2="16.1711">
<stop offset="0" stop-color="#d2da2e"/>
<stop offset="1" stop-color="#29bfff"/>
</linearGradient>
<linearGradient gradientTransform="matrix(1 0 0 1 0 0)" gradientUnits="userSpaceOnUse" id="LinearGradient_2" x1="13.5" x2="13.5" y1="0" y2="31.7917">
<stop offset="0" stop-color="#d2da2e"/>
<stop offset="1" stop-color="#29bfff"/>
</linearGradient>
</defs>
<clipPath id="ArtboardFrame">
<rect height="32" width="27" x="0" y="0"/>
</clipPath>
<g clip-path="url(#ArtboardFrame)" id="Untitled" vectornator:layerName="Untitled">
<path d="M13.4994 7.47412C12.5168 7.47412 11.5563 7.72916 10.7393 8.20698C9.92234 8.68479 9.28558 9.36394 8.90957 10.1585C8.53356 10.9531 8.43517 11.8274 8.62686 12.671C8.81855 13.5145 9.2917 14.2893 9.98649 14.8975C10.6813 15.5056 11.5665 15.9198 12.5302 16.0876C13.4939 16.2554 14.4928 16.1692 15.4005 15.8401C16.3083 15.511 17.0842 14.9536 17.6301 14.2385C18.176 13.5234 18.4673 12.6827 18.4673 11.8226C18.4658 10.6697 17.9419 9.56443 17.0106 8.74922C16.0792 7.934 14.8165 7.47543 13.4994 7.47412L13.4994 7.47412ZM13.4994 13.9969C13.0081 13.9969 12.5278 13.8694 12.1193 13.6304C11.7109 13.3915 11.3925 13.052 11.2045 12.6547C11.0165 12.2574 10.9673 11.8202 11.0631 11.3984C11.159 10.9767 11.3955 10.5893 11.7429 10.2852C12.0903 9.98112 12.5329 9.77404 13.0148 9.69015C13.4966 9.60625 13.9961 9.64931 14.4499 9.81388C14.9038 9.97844 15.2918 10.2571 15.5647 10.6147C15.8377 10.9722 15.9834 11.3926 15.9834 11.8226C15.9826 12.3991 15.7206 12.9517 15.255 13.3593C14.7893 13.7669 14.1579 13.9962 13.4994 13.9969L13.4994 13.9969Z" fill="url(#LinearGradient)" fill-rule="nonzero" opacity="1" stroke="none"/>
<path d="M23.0458 3.46012C20.6854 1.39462 17.5347 0.16762 14.2015 0.0159478C10.8684-0.135724 7.58928 0.79868 4.99696 2.63882C2.40465 4.47896 0.68294 7.09438 0.164136 9.98031C-0.354667 12.8662 0.366209 15.8181 2.18764 18.2661L11.573 30.8777C11.7818 31.1583 12.0674 31.3889 12.4038 31.5485C12.7402 31.7081 13.1168 31.7917 13.4994 31.7917C13.8821 31.7917 14.2586 31.7081 14.595 31.5485C14.9314 31.3889 15.217 31.1583 15.4259 30.8777L24.8115 18.2661C26.5016 15.9952 27.2485 13.2848 26.927 10.5892C26.6055 7.89355 25.2352 5.37658 23.0458 3.46012L23.0458 3.46012ZM22.7303 17.0793L13.4995 29.4828L4.26859 17.0793C1.44306 13.2826 2.04908 8.20168 5.70954 4.99752C6.73251 4.10208 7.94697 3.39177 9.28357 2.90716C10.6202 2.42254 12.0527 2.17312 13.4995 2.17312C14.9462 2.17312 16.3788 2.42254 17.7154 2.90716C19.052 3.39177 20.2664 4.10208 21.2894 4.99752C24.9498 8.20168 25.5558 13.2826 22.7303 17.0793Z" fill="url(#LinearGradient_2)" fill-rule="nonzero" opacity="1" stroke="none"/>
</g>
</svg>
